solid OpenSCAD_Model
  facet normal -1 0 0
    outer loop
      vertex 0 0 0
      vertex 0 77 15
      vertex 0 77 0
    endloop
  endfacet
  facet normal -1 -0 0
    outer loop
      vertex 0 77 15
      vertex 0 0 0
      vertex 0 0 15
    endloop
  endfacet
  facet normal -0 0 1
    outer loop
      vertex 12.5 31.5 15
      vertex 26.5 26.5 15
      vertex 26.5 31.5 15
    endloop
  endfacet
  facet normal 0 0 1
    outer loop
      vertex 26.5 26.5 15
      vertex 12.5 31.5 15
      vertex 12.5 26.5 15
    endloop
  endfacet
  facet normal -0 0 1
    outer loop
      vertex 12.5 50.5 15
      vertex 26.5 45.5 15
      vertex 26.5 50.5 15
    endloop
  endfacet
  facet normal 0 0 1
    outer loop
      vertex 26.5 45.5 15
      vertex 12.5 50.5 15
      vertex 12.5 45.5 15
    endloop
  endfacet
  facet normal -0 0 1
    outer loop
      vertex 31.5 31.5 15
      vertex 45.5 26.5 15
      vertex 45.5 31.5 15
    endloop
  endfacet
  facet normal 0 0 1
    outer loop
      vertex 45.5 26.5 15
      vertex 31.5 31.5 15
      vertex 31.5 26.5 15
    endloop
  endfacet
  facet normal -0 0 1
    outer loop
      vertex 31.5 50.5 15
      vertex 45.5 45.5 15
      vertex 45.5 50.5 15
    endloop
  endfacet
  facet normal 0 0 1
    outer loop
      vertex 45.5 45.5 15
      vertex 31.5 50.5 15
      vertex 31.5 45.5 15
    endloop
  endfacet
  facet normal -0 0 1
    outer loop
      vertex 50.5 31.5 15
      vertex 64.5 26.5 15
      vertex 64.5 31.5 15
    endloop
  endfacet
  facet normal 0 0 1
    outer loop
      vertex 64.5 26.5 15
      vertex 50.5 31.5 15
      vertex 50.5 26.5 15
    endloop
  endfacet
  facet normal -0 0 1
    outer loop
      vertex 50.5 50.5 15
      vertex 64.5 45.5 15
      vertex 64.5 50.5 15
    endloop
  endfacet
  facet normal 0 0 1
    outer loop
      vertex 64.5 45.5 15
      vertex 50.5 50.5 15
      vertex 50.5 45.5 15
    endloop
  endfacet
  facet normal 0 0 1
    outer loop
      vertex 64.5 50.5 15
      vertex 77 77 15
      vertex 64.5 64.5 15
    endloop
  endfacet
  facet normal 0 0 1
    outer loop
      vertex 77 77 15
      vertex 50.5 64.5 15
      vertex 64.5 64.5 15
    endloop
  endfacet
  facet normal 0 0 1
    outer loop
      vertex 45.5 50.5 15
      vertex 50.5 50.5 15
      vertex 50.5 64.5 15
    endloop
  endfacet
  facet normal 0 0 1
    outer loop
      vertex 50.5 50.5 15
      vertex 45.5 50.5 15
      vertex 50.5 45.5 15
    endloop
  endfacet
  facet normal 0 0 1
    outer loop
      vertex 50.5 45.5 15
      vertex 45.5 45.5 15
      vertex 50.5 31.5 15
    endloop
  endfacet
  facet normal 0 0 1
    outer loop
      vertex 45.5 31.5 15
      vertex 50.5 31.5 15
      vertex 45.5 45.5 15
    endloop
  endfacet
  facet normal 0 0 1
    outer loop
      vertex 45.5 50.5 15
      vertex 50.5 64.5 15
      vertex 45.5 64.5 15
    endloop
  endfacet
  facet normal 0 0 1
    outer loop
      vertex 77 77 15
      vertex 45.5 64.5 15
      vertex 50.5 64.5 15
    endloop
  endfacet
  facet normal 0 0 1
    outer loop
      vertex 77 77 15
      vertex 31.5 64.5 15
      vertex 45.5 64.5 15
    endloop
  endfacet
  facet normal 0 0 1
    outer loop
      vertex 26.5 50.5 15
      vertex 31.5 50.5 15
      vertex 31.5 64.5 15
    endloop
  endfacet
  facet normal 0 0 1
    outer loop
      vertex 31.5 50.5 15
      vertex 26.5 50.5 15
      vertex 31.5 45.5 15
    endloop
  endfacet
  facet normal 0 0 1
    outer loop
      vertex 31.5 45.5 15
      vertex 26.5 45.5 15
      vertex 31.5 31.5 15
    endloop
  endfacet
  facet normal 0 0 1
    outer loop
      vertex 26.5 31.5 15
      vertex 31.5 31.5 15
      vertex 26.5 45.5 15
    endloop
  endfacet
  facet normal 0 0 1
    outer loop
      vertex 26.5 50.5 15
      vertex 31.5 64.5 15
      vertex 26.5 64.5 15
    endloop
  endfacet
  facet normal -0 0 1
    outer loop
      vertex 0 77 15
      vertex 31.5 64.5 15
      vertex 77 77 15
    endloop
  endfacet
  facet normal 0 0 1
    outer loop
      vertex 31.5 64.5 15
      vertex 0 77 15
      vertex 26.5 64.5 15
    endloop
  endfacet
  facet normal 0 0 1
    outer loop
      vertex 0 77 15
      vertex 12.5 50.5 15
      vertex 12.5 64.5 15
    endloop
  endfacet
  facet normal 0 0 1
    outer loop
      vertex 12.5 50.5 15
      vertex 0 77 15
      vertex 12.5 45.5 15
    endloop
  endfacet
  facet normal 0 0 1
    outer loop
      vertex 12.5 45.5 15
      vertex 0 77 15
      vertex 12.5 31.5 15
    endloop
  endfacet
  facet normal 0 0 1
    outer loop
      vertex 0 0 15
      vertex 12.5 31.5 15
      vertex 0 77 15
    endloop
  endfacet
  facet normal 0 0 1
    outer loop
      vertex 12.5 31.5 15
      vertex 0 0 15
      vertex 12.5 26.5 15
    endloop
  endfacet
  facet normal 0 0 1
    outer loop
      vertex 26.5 64.5 15
      vertex 0 77 15
      vertex 12.5 64.5 15
    endloop
  endfacet
  facet normal 0 0 1
    outer loop
      vertex 64.5 45.5 15
      vertex 77 77 15
      vertex 64.5 50.5 15
    endloop
  endfacet
  facet normal 0 0 1
    outer loop
      vertex 77 77 15
      vertex 64.5 45.5 15
      vertex 77 0 15
    endloop
  endfacet
  facet normal -0 0 1
    outer loop
      vertex 64.5 31.5 15
      vertex 77 0 15
      vertex 64.5 45.5 15
    endloop
  endfacet
  facet normal -0 0 1
    outer loop
      vertex 64.5 26.5 15
      vertex 77 0 15
      vertex 64.5 31.5 15
    endloop
  endfacet
  facet normal -0 0 1
    outer loop
      vertex 64.5 12.5 15
      vertex 77 0 15
      vertex 64.5 26.5 15
    endloop
  endfacet
  facet normal -0 0 1
    outer loop
      vertex 50.5 12.5 15
      vertex 77 0 15
      vertex 64.5 12.5 15
    endloop
  endfacet
  facet normal 0 0 1
    outer loop
      vertex 50.5 45.5 15
      vertex 45.5 50.5 15
      vertex 45.5 45.5 15
    endloop
  endfacet
  facet normal 0 0 1
    outer loop
      vertex 50.5 31.5 15
      vertex 45.5 31.5 15
      vertex 50.5 26.5 15
    endloop
  endfacet
  facet normal 0 0 1
    outer loop
      vertex 45.5 26.5 15
      vertex 50.5 26.5 15
      vertex 45.5 31.5 15
    endloop
  endfacet
  facet normal 0 0 1
    outer loop
      vertex 50.5 26.5 15
      vertex 45.5 26.5 15
      vertex 50.5 12.5 15
    endloop
  endfacet
  facet normal 0 0 1
    outer loop
      vertex 45.5 12.5 15
      vertex 50.5 12.5 15
      vertex 45.5 26.5 15
    endloop
  endfacet
  facet normal -0 0 1
    outer loop
      vertex 45.5 12.5 15
      vertex 77 0 15
      vertex 50.5 12.5 15
    endloop
  endfacet
  facet normal -0 0 1
    outer loop
      vertex 31.5 12.5 15
      vertex 77 0 15
      vertex 45.5 12.5 15
    endloop
  endfacet
  facet normal 0 0 1
    outer loop
      vertex 31.5 45.5 15
      vertex 26.5 50.5 15
      vertex 26.5 45.5 15
    endloop
  endfacet
  facet normal 0 0 1
    outer loop
      vertex 31.5 31.5 15
      vertex 26.5 31.5 15
      vertex 31.5 26.5 15
    endloop
  endfacet
  facet normal 0 0 1
    outer loop
      vertex 26.5 26.5 15
      vertex 31.5 26.5 15
      vertex 26.5 31.5 15
    endloop
  endfacet
  facet normal 0 0 1
    outer loop
      vertex 31.5 26.5 15
      vertex 26.5 26.5 15
      vertex 31.5 12.5 15
    endloop
  endfacet
  facet normal 0 0 1
    outer loop
      vertex 26.5 12.5 15
      vertex 31.5 12.5 15
      vertex 26.5 26.5 15
    endloop
  endfacet
  facet normal 0 0 1
    outer loop
      vertex 0 0 15
      vertex 31.5 12.5 15
      vertex 26.5 12.5 15
    endloop
  endfacet
  facet normal 0 0 1
    outer loop
      vertex 0 0 15
      vertex 26.5 12.5 15
      vertex 12.5 12.5 15
    endloop
  endfacet
  facet normal 0 0 1
    outer loop
      vertex 31.5 12.5 15
      vertex 0 0 15
      vertex 77 0 15
    endloop
  endfacet
  facet normal 0 0 1
    outer loop
      vertex 12.5 26.5 15
      vertex 0 0 15
      vertex 12.5 12.5 15
    endloop
  endfacet
  facet normal 1 -0 0
    outer loop
      vertex 77 0 15
      vertex 77 77 0
      vertex 77 77 15
    endloop
  endfacet
  facet normal 1 0 0
    outer loop
      vertex 77 77 0
      vertex 77 0 15
      vertex 77 0 0
    endloop
  endfacet
  facet normal -0 0 -1
    outer loop
      vertex 7.5 7.5 0
      vertex 3.78647 5.88168 0
      vertex 7.5 69.5 0
    endloop
  endfacet
  facet normal 0 0 -1
    outer loop
      vertex 7.5 69.5 0
      vertex 5.46352 70.5734 0
      vertex 6.5 72 0
    endloop
  endfacet
  facet normal 0 0 -1
    outer loop
      vertex 3.78647 71.1183 0
      vertex 7.5 69.5 0
      vertex 3.78647 5.88168 0
    endloop
  endfacet
  facet normal 0 0 -1
    outer loop
      vertex 7.5 69.5 0
      vertex 3.78647 71.1183 0
      vertex 5.46352 70.5734 0
    endloop
  endfacet
  facet normal 0 0 -1
    outer loop
      vertex 72.4635 6.42658 0
      vertex 73.5 72 0
      vertex 73.5 5 0
    endloop
  endfacet
  facet normal 0 0 -1
    outer loop
      vertex 72.4635 6.42658 0
      vertex 72.4635 70.5734 0
      vertex 73.5 72 0
    endloop
  endfacet
  facet normal 0 0 -1
    outer loop
      vertex 69.5 7.5 0
      vertex 72.4635 6.42658 0
      vertex 70.7865 5.88168 0
    endloop
  endfacet
  facet normal 0 0 -1
    outer loop
      vertex 72.4635 6.42658 0
      vertex 69.5 7.5 0
      vertex 72.4635 70.5734 0
    endloop
  endfacet
  facet normal 0 0 -1
    outer loop
      vertex 77 0 0
      vertex 73.5 5 0
      vertex 77 77 0
    endloop
  endfacet
  facet normal 0 0 -1
    outer loop
      vertex 77 0 0
      vertex 72.4635 3.57341 0
      vertex 73.5 5 0
    endloop
  endfacet
  facet normal 0 0 -1
    outer loop
      vertex 77 0 0
      vertex 70.7865 4.11832 0
      vertex 72.4635 3.57341 0
    endloop
  endfacet
  facet normal 0 0 -1
    outer loop
      vertex 69.5 7.5 0
      vertex 70.7865 5.88168 0
      vertex 70.7865 4.11832 0
    endloop
  endfacet
  facet normal 0 0 -1
    outer loop
      vertex 69.5 69.5 0
      vertex 72.4635 70.5734 0
      vertex 69.5 7.5 0
    endloop
  endfacet
  facet normal -0 0 -1
    outer loop
      vertex 72.4635 70.5734 0
      vertex 69.5 69.5 0
      vertex 70.7865 71.1183 0
    endloop
  endfacet
  facet normal 0 0 -1
    outer loop
      vertex 70.7865 4.11832 0
      vertex 7.5 7.5 0
      vertex 69.5 7.5 0
    endloop
  endfacet
  facet normal 0 0 -1
    outer loop
      vertex 5.46352 3.57341 0
      vertex 70.7865 4.11832 0
      vertex 77 0 0
    endloop
  endfacet
  facet normal 0 0 -1
    outer loop
      vertex 5.46352 6.42658 0
      vertex 7.5 7.5 0
      vertex 6.5 5 0
    endloop
  endfacet
  facet normal 0 0 -1
    outer loop
      vertex 70.7865 4.11832 0
      vertex 6.5 5 0
      vertex 7.5 7.5 0
    endloop
  endfacet
  facet normal -0 0 -1
    outer loop
      vertex 70.7865 4.11832 0
      vertex 5.46352 3.57341 0
      vertex 6.5 5 0
    endloop
  endfacet
  facet normal 0 0 -1
    outer loop
      vertex 0 0 0
      vertex 3.78647 5.88168 0
      vertex 3.78647 4.11832 0
    endloop
  endfacet
  facet normal -0 0 -1
    outer loop
      vertex 3.78647 5.88168 0
      vertex 0 0 0
      vertex 3.78647 71.1183 0
    endloop
  endfacet
  facet normal 0 0 -1
    outer loop
      vertex 0 77 0
      vertex 3.78647 71.1183 0
      vertex 0 0 0
    endloop
  endfacet
  facet normal -0 0 -1
    outer loop
      vertex 5.46352 3.57341 0
      vertex 0 0 0
      vertex 3.78647 4.11832 0
    endloop
  endfacet
  facet normal 0 0 -1
    outer loop
      vertex 0 0 0
      vertex 5.46352 3.57341 0
      vertex 77 0 0
    endloop
  endfacet
  facet normal 0 0 -1
    outer loop
      vertex 73.5 72 0
      vertex 77 77 0
      vertex 73.5 5 0
    endloop
  endfacet
  facet normal 0 0 -1
    outer loop
      vertex 72.4635 73.4266 0
      vertex 77 77 0
      vertex 73.5 72 0
    endloop
  endfacet
  facet normal 0 0 -1
    outer loop
      vertex 70.7865 72.8817 0
      vertex 77 77 0
      vertex 72.4635 73.4266 0
    endloop
  endfacet
  facet normal -0 0 -1
    outer loop
      vertex 70.7865 71.1183 0
      vertex 69.5 69.5 0
      vertex 70.7865 72.8817 0
    endloop
  endfacet
  facet normal 0 0 -1
    outer loop
      vertex 7.5 69.5 0
      vertex 70.7865 72.8817 0
      vertex 69.5 69.5 0
    endloop
  endfacet
  facet normal 0 0 -1
    outer loop
      vertex 6.5 72 0
      vertex 70.7865 72.8817 0
      vertex 7.5 69.5 0
    endloop
  endfacet
  facet normal 0 0 -1
    outer loop
      vertex 3.78647 5.88168 0
      vertex 7.5 7.5 0
      vertex 5.46352 6.42658 0
    endloop
  endfacet
  facet normal 0 0 -1
    outer loop
      vertex 5.46352 73.4266 0
      vertex 70.7865 72.8817 0
      vertex 6.5 72 0
    endloop
  endfacet
  facet normal 0 0 -1
    outer loop
      vertex 70.7865 72.8817 0
      vertex 5.46352 73.4266 0
      vertex 77 77 0
    endloop
  endfacet
  facet normal 0 0 -1
    outer loop
      vertex 5.46352 73.4266 0
      vertex 0 77 0
      vertex 77 77 0
    endloop
  endfacet
  facet normal 0 0 -1
    outer loop
      vertex 3.78647 72.8817 0
      vertex 0 77 0
      vertex 5.46352 73.4266 0
    endloop
  endfacet
  facet normal 0 0 -1
    outer loop
      vertex 3.78647 71.1183 0
      vertex 0 77 0
      vertex 3.78647 72.8817 0
    endloop
  endfacet
  facet normal 0 -1 0
    outer loop
      vertex 0 0 0
      vertex 77 0 15
      vertex 0 0 15
    endloop
  endfacet
  facet normal 0 -1 -0
    outer loop
      vertex 77 0 15
      vertex 0 0 0
      vertex 77 0 0
    endloop
  endfacet
  facet normal 0 1 -0
    outer loop
      vertex 77 77 0
      vertex 0 77 15
      vertex 77 77 15
    endloop
  endfacet
  facet normal 0 1 0
    outer loop
      vertex 0 77 15
      vertex 77 77 0
      vertex 0 77 0
    endloop
  endfacet
  facet normal 1 -0 0
    outer loop
      vertex 7.5 7.5 13
      vertex 7.5 69.5 0
      vertex 7.5 69.5 13
    endloop
  endfacet
  facet normal 1 0 0
    outer loop
      vertex 7.5 69.5 0
      vertex 7.5 7.5 13
      vertex 7.5 7.5 0
    endloop
  endfacet
  facet normal -1 0 0
    outer loop
      vertex 69.5 7.5 0
      vertex 69.5 69.5 13
      vertex 69.5 69.5 0
    endloop
  endfacet
  facet normal -1 -0 0
    outer loop
      vertex 69.5 69.5 13
      vertex 69.5 7.5 0
      vertex 69.5 7.5 13
    endloop
  endfacet
  facet normal 0 -1 0
    outer loop
      vertex 7.5 69.5 0
      vertex 69.5 69.5 13
      vertex 7.5 69.5 13
    endloop
  endfacet
  facet normal 0 -1 -0
    outer loop
      vertex 69.5 69.5 13
      vertex 7.5 69.5 0
      vertex 69.5 69.5 0
    endloop
  endfacet
  facet normal 0 1 -0
    outer loop
      vertex 69.5 7.5 0
      vertex 7.5 7.5 13
      vertex 69.5 7.5 13
    endloop
  endfacet
  facet normal 0 1 0
    outer loop
      vertex 7.5 7.5 13
      vertex 69.5 7.5 0
      vertex 7.5 7.5 0
    endloop
  endfacet
  facet normal -0.809015 -0.587789 0
    outer loop
      vertex 6.5 5 0
      vertex 5.46352 6.42658 13
      vertex 5.46352 6.42658 0
    endloop
  endfacet
  facet normal -0.809015 -0.587789 0
    outer loop
      vertex 5.46352 6.42658 13
      vertex 6.5 5 0
      vertex 6.5 5 13
    endloop
  endfacet
  facet normal 1 -0 0
    outer loop
      vertex 3.78647 4.11832 13
      vertex 3.78647 5.88168 0
      vertex 3.78647 5.88168 13
    endloop
  endfacet
  facet normal 1 0 0
    outer loop
      vertex 3.78647 5.88168 0
      vertex 3.78647 4.11832 13
      vertex 3.78647 4.11832 0
    endloop
  endfacet
  facet normal 0.309014 -0.951058 0
    outer loop
      vertex 3.78647 5.88168 0
      vertex 5.46352 6.42658 13
      vertex 3.78647 5.88168 13
    endloop
  endfacet
  facet normal 0.309014 -0.951058 0
    outer loop
      vertex 5.46352 6.42658 13
      vertex 3.78647 5.88168 0
      vertex 5.46352 6.42658 0
    endloop
  endfacet
  facet normal 0 0 -1
    outer loop
      vertex 5.46352 3.57341 13
      vertex 5.46352 6.42658 13
      vertex 6.5 5 13
    endloop
  endfacet
  facet normal 0 0 -1
    outer loop
      vertex 3.78647 4.11832 13
      vertex 5.46352 6.42658 13
      vertex 5.46352 3.57341 13
    endloop
  endfacet
  facet normal 0 0 -1
    outer loop
      vertex 5.46352 6.42658 13
      vertex 3.78647 4.11832 13
      vertex 3.78647 5.88168 13
    endloop
  endfacet
  facet normal -0.809017 0.587786 0
    outer loop
      vertex 5.46352 3.57341 0
      vertex 6.5 5 13
      vertex 6.5 5 0
    endloop
  endfacet
  facet normal -0.809017 0.587786 0
    outer loop
      vertex 6.5 5 13
      vertex 5.46352 3.57341 0
      vertex 5.46352 3.57341 13
    endloop
  endfacet
  facet normal 0.309019 0.951056 -0
    outer loop
      vertex 5.46352 3.57341 0
      vertex 3.78647 4.11832 13
      vertex 5.46352 3.57341 13
    endloop
  endfacet
  facet normal 0.309019 0.951056 0
    outer loop
      vertex 3.78647 4.11832 13
      vertex 5.46352 3.57341 0
      vertex 3.78647 4.11832 0
    endloop
  endfacet
  facet normal -0.809009 -0.587796 0
    outer loop
      vertex 73.5 5 0
      vertex 72.4635 6.42658 13
      vertex 72.4635 6.42658 0
    endloop
  endfacet
  facet normal -0.809009 -0.587796 0
    outer loop
      vertex 72.4635 6.42658 13
      vertex 73.5 5 0
      vertex 73.5 5 13
    endloop
  endfacet
  facet normal 1 -0 0
    outer loop
      vertex 70.7865 4.11832 13
      vertex 70.7865 5.88168 0
      vertex 70.7865 5.88168 13
    endloop
  endfacet
  facet normal 1 0 0
    outer loop
      vertex 70.7865 5.88168 0
      vertex 70.7865 4.11832 13
      vertex 70.7865 4.11832 0
    endloop
  endfacet
  facet normal 0.309022 -0.951055 0
    outer loop
      vertex 70.7865 5.88168 0
      vertex 72.4635 6.42658 13
      vertex 70.7865 5.88168 13
    endloop
  endfacet
  facet normal 0.309022 -0.951055 0
    outer loop
      vertex 72.4635 6.42658 13
      vertex 70.7865 5.88168 0
      vertex 72.4635 6.42658 0
    endloop
  endfacet
  facet normal 0.309027 0.951053 -0
    outer loop
      vertex 72.4635 3.57341 0
      vertex 70.7865 4.11832 13
      vertex 72.4635 3.57341 13
    endloop
  endfacet
  facet normal 0.309027 0.951053 0
    outer loop
      vertex 70.7865 4.11832 13
      vertex 72.4635 3.57341 0
      vertex 70.7865 4.11832 0
    endloop
  endfacet
  facet normal 0 0 -1
    outer loop
      vertex 72.4635 3.57341 13
      vertex 72.4635 6.42658 13
      vertex 73.5 5 13
    endloop
  endfacet
  facet normal 0 0 -1
    outer loop
      vertex 70.7865 4.11832 13
      vertex 72.4635 6.42658 13
      vertex 72.4635 3.57341 13
    endloop
  endfacet
  facet normal 0 0 -1
    outer loop
      vertex 72.4635 6.42658 13
      vertex 70.7865 4.11832 13
      vertex 70.7865 5.88168 13
    endloop
  endfacet
  facet normal -0.809011 0.587793 0
    outer loop
      vertex 72.4635 3.57341 0
      vertex 73.5 5 13
      vertex 73.5 5 0
    endloop
  endfacet
  facet normal -0.809011 0.587793 0
    outer loop
      vertex 73.5 5 13
      vertex 72.4635 3.57341 0
      vertex 72.4635 3.57341 13
    endloop
  endfacet
  facet normal -0.809013 -0.587791 0
    outer loop
      vertex 73.5 72 0
      vertex 72.4635 73.4266 13
      vertex 72.4635 73.4266 0
    endloop
  endfacet
  facet normal -0.809013 -0.587791 0
    outer loop
      vertex 72.4635 73.4266 13
      vertex 73.5 72 0
      vertex 73.5 72 13
    endloop
  endfacet
  facet normal 1 -0 0
    outer loop
      vertex 70.7865 71.1183 13
      vertex 70.7865 72.8817 0
      vertex 70.7865 72.8817 13
    endloop
  endfacet
  facet normal 1 0 0
    outer loop
      vertex 70.7865 72.8817 0
      vertex 70.7865 71.1183 13
      vertex 70.7865 71.1183 0
    endloop
  endfacet
  facet normal 0.309022 -0.951055 0
    outer loop
      vertex 70.7865 72.8817 0
      vertex 72.4635 73.4266 13
      vertex 70.7865 72.8817 13
    endloop
  endfacet
  facet normal 0.309022 -0.951055 0
    outer loop
      vertex 72.4635 73.4266 13
      vertex 70.7865 72.8817 0
      vertex 72.4635 73.4266 0
    endloop
  endfacet
  facet normal 0 0 -1
    outer loop
      vertex 72.4635 70.5734 13
      vertex 72.4635 73.4266 13
      vertex 73.5 72 13
    endloop
  endfacet
  facet normal 0 0 -1
    outer loop
      vertex 70.7865 71.1183 13
      vertex 72.4635 73.4266 13
      vertex 72.4635 70.5734 13
    endloop
  endfacet
  facet normal 0 0 -1
    outer loop
      vertex 72.4635 73.4266 13
      vertex 70.7865 71.1183 13
      vertex 70.7865 72.8817 13
    endloop
  endfacet
  facet normal 0.309022 0.951055 -0
    outer loop
      vertex 72.4635 70.5734 0
      vertex 70.7865 71.1183 13
      vertex 72.4635 70.5734 13
    endloop
  endfacet
  facet normal 0.309022 0.951055 0
    outer loop
      vertex 70.7865 71.1183 13
      vertex 72.4635 70.5734 0
      vertex 70.7865 71.1183 0
    endloop
  endfacet
  facet normal -0.809013 0.587791 0
    outer loop
      vertex 72.4635 70.5734 0
      vertex 73.5 72 13
      vertex 73.5 72 0
    endloop
  endfacet
  facet normal -0.809013 0.587791 0
    outer loop
      vertex 73.5 72 13
      vertex 72.4635 70.5734 0
      vertex 72.4635 70.5734 13
    endloop
  endfacet
  facet normal -0.809018 -0.587783 0
    outer loop
      vertex 6.5 72 0
      vertex 5.46352 73.4266 13
      vertex 5.46352 73.4266 0
    endloop
  endfacet
  facet normal -0.809018 -0.587783 0
    outer loop
      vertex 5.46352 73.4266 13
      vertex 6.5 72 0
      vertex 6.5 72 13
    endloop
  endfacet
  facet normal 1 -0 0
    outer loop
      vertex 3.78647 71.1183 13
      vertex 3.78647 72.8817 0
      vertex 3.78647 72.8817 13
    endloop
  endfacet
  facet normal 1 0 0
    outer loop
      vertex 3.78647 72.8817 0
      vertex 3.78647 71.1183 13
      vertex 3.78647 71.1183 0
    endloop
  endfacet
  facet normal 0.309014 -0.951058 0
    outer loop
      vertex 3.78647 72.8817 0
      vertex 5.46352 73.4266 13
      vertex 3.78647 72.8817 13
    endloop
  endfacet
  facet normal 0.309014 -0.951058 0
    outer loop
      vertex 5.46352 73.4266 13
      vertex 3.78647 72.8817 0
      vertex 5.46352 73.4266 0
    endloop
  endfacet
  facet normal 0 0 -1
    outer loop
      vertex 5.46352 70.5734 13
      vertex 5.46352 73.4266 13
      vertex 6.5 72 13
    endloop
  endfacet
  facet normal 0 0 -1
    outer loop
      vertex 3.78647 71.1183 13
      vertex 5.46352 73.4266 13
      vertex 5.46352 70.5734 13
    endloop
  endfacet
  facet normal 0 0 -1
    outer loop
      vertex 5.46352 73.4266 13
      vertex 3.78647 71.1183 13
      vertex 3.78647 72.8817 13
    endloop
  endfacet
  facet normal 0.309014 0.951058 -0
    outer loop
      vertex 5.46352 70.5734 0
      vertex 3.78647 71.1183 13
      vertex 5.46352 70.5734 13
    endloop
  endfacet
  facet normal 0.309014 0.951058 0
    outer loop
      vertex 3.78647 71.1183 13
      vertex 5.46352 70.5734 0
      vertex 3.78647 71.1183 0
    endloop
  endfacet
  facet normal -0.809018 0.587783 0
    outer loop
      vertex 5.46352 70.5734 0
      vertex 6.5 72 13
      vertex 6.5 72 0
    endloop
  endfacet
  facet normal -0.809018 0.587783 0
    outer loop
      vertex 6.5 72 13
      vertex 5.46352 70.5734 0
      vertex 5.46352 70.5734 13
    endloop
  endfacet
  facet normal 1 -0 0
    outer loop
      vertex 12.5 12.5 15
      vertex 12.5 26.5 13
      vertex 12.5 26.5 15
    endloop
  endfacet
  facet normal 1 0 0
    outer loop
      vertex 12.5 26.5 13
      vertex 12.5 12.5 15
      vertex 12.5 12.5 13
    endloop
  endfacet
  facet normal -1 0 0
    outer loop
      vertex 26.5 12.5 13
      vertex 26.5 26.5 15
      vertex 26.5 26.5 13
    endloop
  endfacet
  facet normal -1 -0 0
    outer loop
      vertex 26.5 26.5 15
      vertex 26.5 12.5 13
      vertex 26.5 12.5 15
    endloop
  endfacet
  facet normal 0 -1 0
    outer loop
      vertex 12.5 26.5 13
      vertex 26.5 26.5 15
      vertex 12.5 26.5 15
    endloop
  endfacet
  facet normal 0 -1 -0
    outer loop
      vertex 26.5 26.5 15
      vertex 12.5 26.5 13
      vertex 26.5 26.5 13
    endloop
  endfacet
  facet normal 0 0 -1
    outer loop
      vertex 12.5 45.5 13
      vertex 26.5 50.5 13
      vertex 26.5 45.5 13
    endloop
  endfacet
  facet normal -0 0 -1
    outer loop
      vertex 26.5 50.5 13
      vertex 12.5 45.5 13
      vertex 12.5 50.5 13
    endloop
  endfacet
  facet normal 0 0 -1
    outer loop
      vertex 12.5 26.5 13
      vertex 26.5 31.5 13
      vertex 26.5 26.5 13
    endloop
  endfacet
  facet normal -0 0 -1
    outer loop
      vertex 26.5 31.5 13
      vertex 12.5 26.5 13
      vertex 12.5 31.5 13
    endloop
  endfacet
  facet normal 0 0 -1
    outer loop
      vertex 31.5 45.5 13
      vertex 45.5 50.5 13
      vertex 45.5 45.5 13
    endloop
  endfacet
  facet normal -0 0 -1
    outer loop
      vertex 45.5 50.5 13
      vertex 31.5 45.5 13
      vertex 31.5 50.5 13
    endloop
  endfacet
  facet normal 0 0 -1
    outer loop
      vertex 31.5 26.5 13
      vertex 45.5 31.5 13
      vertex 45.5 26.5 13
    endloop
  endfacet
  facet normal -0 0 -1
    outer loop
      vertex 45.5 31.5 13
      vertex 31.5 26.5 13
      vertex 31.5 31.5 13
    endloop
  endfacet
  facet normal 0 0 -1
    outer loop
      vertex 50.5 45.5 13
      vertex 64.5 50.5 13
      vertex 64.5 45.5 13
    endloop
  endfacet
  facet normal -0 0 -1
    outer loop
      vertex 64.5 50.5 13
      vertex 50.5 45.5 13
      vertex 50.5 50.5 13
    endloop
  endfacet
  facet normal 0 0 -1
    outer loop
      vertex 50.5 26.5 13
      vertex 64.5 31.5 13
      vertex 64.5 26.5 13
    endloop
  endfacet
  facet normal -0 0 -1
    outer loop
      vertex 64.5 31.5 13
      vertex 50.5 26.5 13
      vertex 50.5 31.5 13
    endloop
  endfacet
  facet normal 0 0 -1
    outer loop
      vertex 64.5 26.5 13
      vertex 69.5 7.5 13
      vertex 64.5 12.5 13
    endloop
  endfacet
  facet normal 0 0 -1
    outer loop
      vertex 69.5 7.5 13
      vertex 50.5 12.5 13
      vertex 64.5 12.5 13
    endloop
  endfacet
  facet normal 0 0 -1
    outer loop
      vertex 45.5 26.5 13
      vertex 50.5 26.5 13
      vertex 50.5 12.5 13
    endloop
  endfacet
  facet normal 0 0 -1
    outer loop
      vertex 50.5 26.5 13
      vertex 45.5 26.5 13
      vertex 50.5 31.5 13
    endloop
  endfacet
  facet normal 0 0 -1
    outer loop
      vertex 50.5 31.5 13
      vertex 45.5 31.5 13
      vertex 50.5 45.5 13
    endloop
  endfacet
  facet normal 0 0 -1
    outer loop
      vertex 45.5 45.5 13
      vertex 50.5 45.5 13
      vertex 45.5 31.5 13
    endloop
  endfacet
  facet normal 0 0 -1
    outer loop
      vertex 45.5 26.5 13
      vertex 50.5 12.5 13
      vertex 45.5 12.5 13
    endloop
  endfacet
  facet normal 0 0 -1
    outer loop
      vertex 69.5 7.5 13
      vertex 45.5 12.5 13
      vertex 50.5 12.5 13
    endloop
  endfacet
  facet normal 0 0 -1
    outer loop
      vertex 69.5 7.5 13
      vertex 31.5 12.5 13
      vertex 45.5 12.5 13
    endloop
  endfacet
  facet normal 0 0 -1
    outer loop
      vertex 26.5 26.5 13
      vertex 31.5 26.5 13
      vertex 31.5 12.5 13
    endloop
  endfacet
  facet normal 0 0 -1
    outer loop
      vertex 31.5 26.5 13
      vertex 26.5 26.5 13
      vertex 31.5 31.5 13
    endloop
  endfacet
  facet normal 0 0 -1
    outer loop
      vertex 31.5 31.5 13
      vertex 26.5 31.5 13
      vertex 31.5 45.5 13
    endloop
  endfacet
  facet normal 0 0 -1
    outer loop
      vertex 26.5 45.5 13
      vertex 31.5 45.5 13
      vertex 26.5 31.5 13
    endloop
  endfacet
  facet normal 0 0 -1
    outer loop
      vertex 26.5 26.5 13
      vertex 31.5 12.5 13
      vertex 26.5 12.5 13
    endloop
  endfacet
  facet normal 0 0 -1
    outer loop
      vertex 7.5 7.5 13
      vertex 31.5 12.5 13
      vertex 69.5 7.5 13
    endloop
  endfacet
  facet normal -0 0 -1
    outer loop
      vertex 31.5 12.5 13
      vertex 7.5 7.5 13
      vertex 26.5 12.5 13
    endloop
  endfacet
  facet normal 0 0 -1
    outer loop
      vertex 7.5 7.5 13
      vertex 12.5 26.5 13
      vertex 12.5 12.5 13
    endloop
  endfacet
  facet normal -0 0 -1
    outer loop
      vertex 12.5 26.5 13
      vertex 7.5 7.5 13
      vertex 12.5 31.5 13
    endloop
  endfacet
  facet normal -0 0 -1
    outer loop
      vertex 12.5 31.5 13
      vertex 7.5 7.5 13
      vertex 12.5 45.5 13
    endloop
  endfacet
  facet normal 0 0 -1
    outer loop
      vertex 7.5 69.5 13
      vertex 12.5 45.5 13
      vertex 7.5 7.5 13
    endloop
  endfacet
  facet normal 0 0 -1
    outer loop
      vertex 12.5 45.5 13
      vertex 7.5 69.5 13
      vertex 12.5 50.5 13
    endloop
  endfacet
  facet normal -0 0 -1
    outer loop
      vertex 26.5 12.5 13
      vertex 7.5 7.5 13
      vertex 12.5 12.5 13
    endloop
  endfacet
  facet normal 0 0 -1
    outer loop
      vertex 64.5 31.5 13
      vertex 69.5 7.5 13
      vertex 64.5 26.5 13
    endloop
  endfacet
  facet normal 0 0 -1
    outer loop
      vertex 69.5 7.5 13
      vertex 64.5 31.5 13
      vertex 69.5 69.5 13
    endloop
  endfacet
  facet normal 0 0 -1
    outer loop
      vertex 64.5 45.5 13
      vertex 69.5 69.5 13
      vertex 64.5 31.5 13
    endloop
  endfacet
  facet normal 0 0 -1
    outer loop
      vertex 64.5 50.5 13
      vertex 69.5 69.5 13
      vertex 64.5 45.5 13
    endloop
  endfacet
  facet normal 0 0 -1
    outer loop
      vertex 64.5 64.5 13
      vertex 69.5 69.5 13
      vertex 64.5 50.5 13
    endloop
  endfacet
  facet normal 0 0 -1
    outer loop
      vertex 50.5 64.5 13
      vertex 69.5 69.5 13
      vertex 64.5 64.5 13
    endloop
  endfacet
  facet normal -0 0 -1
    outer loop
      vertex 50.5 31.5 13
      vertex 45.5 26.5 13
      vertex 45.5 31.5 13
    endloop
  endfacet
  facet normal 0 0 -1
    outer loop
      vertex 50.5 45.5 13
      vertex 45.5 45.5 13
      vertex 50.5 50.5 13
    endloop
  endfacet
  facet normal 0 0 -1
    outer loop
      vertex 45.5 50.5 13
      vertex 50.5 50.5 13
      vertex 45.5 45.5 13
    endloop
  endfacet
  facet normal 0 0 -1
    outer loop
      vertex 50.5 50.5 13
      vertex 45.5 50.5 13
      vertex 50.5 64.5 13
    endloop
  endfacet
  facet normal 0 0 -1
    outer loop
      vertex 45.5 64.5 13
      vertex 50.5 64.5 13
      vertex 45.5 50.5 13
    endloop
  endfacet
  facet normal 0 0 -1
    outer loop
      vertex 45.5 64.5 13
      vertex 69.5 69.5 13
      vertex 50.5 64.5 13
    endloop
  endfacet
  facet normal 0 0 -1
    outer loop
      vertex 31.5 64.5 13
      vertex 69.5 69.5 13
      vertex 45.5 64.5 13
    endloop
  endfacet
  facet normal -0 0 -1
    outer loop
      vertex 31.5 31.5 13
      vertex 26.5 26.5 13
      vertex 26.5 31.5 13
    endloop
  endfacet
  facet normal 0 0 -1
    outer loop
      vertex 31.5 45.5 13
      vertex 26.5 45.5 13
      vertex 31.5 50.5 13
    endloop
  endfacet
  facet normal 0 0 -1
    outer loop
      vertex 26.5 50.5 13
      vertex 31.5 50.5 13
      vertex 26.5 45.5 13
    endloop
  endfacet
  facet normal 0 0 -1
    outer loop
      vertex 31.5 50.5 13
      vertex 26.5 50.5 13
      vertex 31.5 64.5 13
    endloop
  endfacet
  facet normal 0 0 -1
    outer loop
      vertex 26.5 64.5 13
      vertex 31.5 64.5 13
      vertex 26.5 50.5 13
    endloop
  endfacet
  facet normal 0 0 -1
    outer loop
      vertex 7.5 69.5 13
      vertex 31.5 64.5 13
      vertex 26.5 64.5 13
    endloop
  endfacet
  facet normal 0 0 -1
    outer loop
      vertex 7.5 69.5 13
      vertex 26.5 64.5 13
      vertex 12.5 64.5 13
    endloop
  endfacet
  facet normal 0 0 -1
    outer loop
      vertex 31.5 64.5 13
      vertex 7.5 69.5 13
      vertex 69.5 69.5 13
    endloop
  endfacet
  facet normal 0 0 -1
    outer loop
      vertex 12.5 50.5 13
      vertex 7.5 69.5 13
      vertex 12.5 64.5 13
    endloop
  endfacet
  facet normal 0 1 -0
    outer loop
      vertex 26.5 12.5 13
      vertex 12.5 12.5 15
      vertex 26.5 12.5 15
    endloop
  endfacet
  facet normal 0 1 0
    outer loop
      vertex 12.5 12.5 15
      vertex 26.5 12.5 13
      vertex 12.5 12.5 13
    endloop
  endfacet
  facet normal 1 -0 0
    outer loop
      vertex 31.5 12.5 15
      vertex 31.5 26.5 13
      vertex 31.5 26.5 15
    endloop
  endfacet
  facet normal 1 0 0
    outer loop
      vertex 31.5 26.5 13
      vertex 31.5 12.5 15
      vertex 31.5 12.5 13
    endloop
  endfacet
  facet normal -1 0 0
    outer loop
      vertex 45.5 12.5 13
      vertex 45.5 26.5 15
      vertex 45.5 26.5 13
    endloop
  endfacet
  facet normal -1 -0 0
    outer loop
      vertex 45.5 26.5 15
      vertex 45.5 12.5 13
      vertex 45.5 12.5 15
    endloop
  endfacet
  facet normal 0 1 -0
    outer loop
      vertex 45.5 12.5 13
      vertex 31.5 12.5 15
      vertex 45.5 12.5 15
    endloop
  endfacet
  facet normal 0 1 0
    outer loop
      vertex 31.5 12.5 15
      vertex 45.5 12.5 13
      vertex 31.5 12.5 13
    endloop
  endfacet
  facet normal 0 -1 0
    outer loop
      vertex 31.5 26.5 13
      vertex 45.5 26.5 15
      vertex 31.5 26.5 15
    endloop
  endfacet
  facet normal 0 -1 -0
    outer loop
      vertex 45.5 26.5 15
      vertex 31.5 26.5 13
      vertex 45.5 26.5 13
    endloop
  endfacet
  facet normal 1 -0 0
    outer loop
      vertex 50.5 12.5 15
      vertex 50.5 26.5 13
      vertex 50.5 26.5 15
    endloop
  endfacet
  facet normal 1 0 0
    outer loop
      vertex 50.5 26.5 13
      vertex 50.5 12.5 15
      vertex 50.5 12.5 13
    endloop
  endfacet
  facet normal -1 0 0
    outer loop
      vertex 64.5 12.5 13
      vertex 64.5 26.5 15
      vertex 64.5 26.5 13
    endloop
  endfacet
  facet normal -1 -0 0
    outer loop
      vertex 64.5 26.5 15
      vertex 64.5 12.5 13
      vertex 64.5 12.5 15
    endloop
  endfacet
  facet normal 0 1 -0
    outer loop
      vertex 64.5 12.5 13
      vertex 50.5 12.5 15
      vertex 64.5 12.5 15
    endloop
  endfacet
  facet normal 0 1 0
    outer loop
      vertex 50.5 12.5 15
      vertex 64.5 12.5 13
      vertex 50.5 12.5 13
    endloop
  endfacet
  facet normal 0 -1 0
    outer loop
      vertex 50.5 26.5 13
      vertex 64.5 26.5 15
      vertex 50.5 26.5 15
    endloop
  endfacet
  facet normal 0 -1 -0
    outer loop
      vertex 64.5 26.5 15
      vertex 50.5 26.5 13
      vertex 64.5 26.5 13
    endloop
  endfacet
  facet normal 1 -0 0
    outer loop
      vertex 12.5 31.5 15
      vertex 12.5 45.5 13
      vertex 12.5 45.5 15
    endloop
  endfacet
  facet normal 1 0 0
    outer loop
      vertex 12.5 45.5 13
      vertex 12.5 31.5 15
      vertex 12.5 31.5 13
    endloop
  endfacet
  facet normal -1 0 0
    outer loop
      vertex 26.5 31.5 13
      vertex 26.5 45.5 15
      vertex 26.5 45.5 13
    endloop
  endfacet
  facet normal -1 -0 0
    outer loop
      vertex 26.5 45.5 15
      vertex 26.5 31.5 13
      vertex 26.5 31.5 15
    endloop
  endfacet
  facet normal 0 -1 0
    outer loop
      vertex 12.5 45.5 13
      vertex 26.5 45.5 15
      vertex 12.5 45.5 15
    endloop
  endfacet
  facet normal 0 -1 -0
    outer loop
      vertex 26.5 45.5 15
      vertex 12.5 45.5 13
      vertex 26.5 45.5 13
    endloop
  endfacet
  facet normal 0 1 -0
    outer loop
      vertex 26.5 31.5 13
      vertex 12.5 31.5 15
      vertex 26.5 31.5 15
    endloop
  endfacet
  facet normal 0 1 0
    outer loop
      vertex 12.5 31.5 15
      vertex 26.5 31.5 13
      vertex 12.5 31.5 13
    endloop
  endfacet
  facet normal 1 -0 0
    outer loop
      vertex 31.5 31.5 15
      vertex 31.5 45.5 13
      vertex 31.5 45.5 15
    endloop
  endfacet
  facet normal 1 0 0
    outer loop
      vertex 31.5 45.5 13
      vertex 31.5 31.5 15
      vertex 31.5 31.5 13
    endloop
  endfacet
  facet normal -1 0 0
    outer loop
      vertex 45.5 31.5 13
      vertex 45.5 45.5 15
      vertex 45.5 45.5 13
    endloop
  endfacet
  facet normal -1 -0 0
    outer loop
      vertex 45.5 45.5 15
      vertex 45.5 31.5 13
      vertex 45.5 31.5 15
    endloop
  endfacet
  facet normal 0 1 -0
    outer loop
      vertex 45.5 31.5 13
      vertex 31.5 31.5 15
      vertex 45.5 31.5 15
    endloop
  endfacet
  facet normal 0 1 0
    outer loop
      vertex 31.5 31.5 15
      vertex 45.5 31.5 13
      vertex 31.5 31.5 13
    endloop
  endfacet
  facet normal 0 -1 0
    outer loop
      vertex 31.5 45.5 13
      vertex 45.5 45.5 15
      vertex 31.5 45.5 15
    endloop
  endfacet
  facet normal 0 -1 -0
    outer loop
      vertex 45.5 45.5 15
      vertex 31.5 45.5 13
      vertex 45.5 45.5 13
    endloop
  endfacet
  facet normal 1 -0 0
    outer loop
      vertex 50.5 31.5 15
      vertex 50.5 45.5 13
      vertex 50.5 45.5 15
    endloop
  endfacet
  facet normal 1 0 0
    outer loop
      vertex 50.5 45.5 13
      vertex 50.5 31.5 15
      vertex 50.5 31.5 13
    endloop
  endfacet
  facet normal -1 0 0
    outer loop
      vertex 64.5 31.5 13
      vertex 64.5 45.5 15
      vertex 64.5 45.5 13
    endloop
  endfacet
  facet normal -1 -0 0
    outer loop
      vertex 64.5 45.5 15
      vertex 64.5 31.5 13
      vertex 64.5 31.5 15
    endloop
  endfacet
  facet normal 0 -1 0
    outer loop
      vertex 50.5 45.5 13
      vertex 64.5 45.5 15
      vertex 50.5 45.5 15
    endloop
  endfacet
  facet normal 0 -1 -0
    outer loop
      vertex 64.5 45.5 15
      vertex 50.5 45.5 13
      vertex 64.5 45.5 13
    endloop
  endfacet
  facet normal 0 1 -0
    outer loop
      vertex 64.5 31.5 13
      vertex 50.5 31.5 15
      vertex 64.5 31.5 15
    endloop
  endfacet
  facet normal 0 1 0
    outer loop
      vertex 50.5 31.5 15
      vertex 64.5 31.5 13
      vertex 50.5 31.5 13
    endloop
  endfacet
  facet normal 1 -0 0
    outer loop
      vertex 12.5 50.5 15
      vertex 12.5 64.5 13
      vertex 12.5 64.5 15
    endloop
  endfacet
  facet normal 1 0 0
    outer loop
      vertex 12.5 64.5 13
      vertex 12.5 50.5 15
      vertex 12.5 50.5 13
    endloop
  endfacet
  facet normal -1 0 0
    outer loop
      vertex 26.5 50.5 13
      vertex 26.5 64.5 15
      vertex 26.5 64.5 13
    endloop
  endfacet
  facet normal -1 -0 0
    outer loop
      vertex 26.5 64.5 15
      vertex 26.5 50.5 13
      vertex 26.5 50.5 15
    endloop
  endfacet
  facet normal 0 -1 0
    outer loop
      vertex 12.5 64.5 13
      vertex 26.5 64.5 15
      vertex 12.5 64.5 15
    endloop
  endfacet
  facet normal 0 -1 -0
    outer loop
      vertex 26.5 64.5 15
      vertex 12.5 64.5 13
      vertex 26.5 64.5 13
    endloop
  endfacet
  facet normal 0 1 -0
    outer loop
      vertex 26.5 50.5 13
      vertex 12.5 50.5 15
      vertex 26.5 50.5 15
    endloop
  endfacet
  facet normal 0 1 0
    outer loop
      vertex 12.5 50.5 15
      vertex 26.5 50.5 13
      vertex 12.5 50.5 13
    endloop
  endfacet
  facet normal 1 -0 0
    outer loop
      vertex 31.5 50.5 15
      vertex 31.5 64.5 13
      vertex 31.5 64.5 15
    endloop
  endfacet
  facet normal 1 0 0
    outer loop
      vertex 31.5 64.5 13
      vertex 31.5 50.5 15
      vertex 31.5 50.5 13
    endloop
  endfacet
  facet normal -1 0 0
    outer loop
      vertex 45.5 50.5 13
      vertex 45.5 64.5 15
      vertex 45.5 64.5 13
    endloop
  endfacet
  facet normal -1 -0 0
    outer loop
      vertex 45.5 64.5 15
      vertex 45.5 50.5 13
      vertex 45.5 50.5 15
    endloop
  endfacet
  facet normal 0 1 -0
    outer loop
      vertex 45.5 50.5 13
      vertex 31.5 50.5 15
      vertex 45.5 50.5 15
    endloop
  endfacet
  facet normal 0 1 0
    outer loop
      vertex 31.5 50.5 15
      vertex 45.5 50.5 13
      vertex 31.5 50.5 13
    endloop
  endfacet
  facet normal 0 -1 0
    outer loop
      vertex 31.5 64.5 13
      vertex 45.5 64.5 15
      vertex 31.5 64.5 15
    endloop
  endfacet
  facet normal 0 -1 -0
    outer loop
      vertex 45.5 64.5 15
      vertex 31.5 64.5 13
      vertex 45.5 64.5 13
    endloop
  endfacet
  facet normal 1 -0 0
    outer loop
      vertex 50.5 50.5 15
      vertex 50.5 64.5 13
      vertex 50.5 64.5 15
    endloop
  endfacet
  facet normal 1 0 0
    outer loop
      vertex 50.5 64.5 13
      vertex 50.5 50.5 15
      vertex 50.5 50.5 13
    endloop
  endfacet
  facet normal -1 0 0
    outer loop
      vertex 64.5 50.5 13
      vertex 64.5 64.5 15
      vertex 64.5 64.5 13
    endloop
  endfacet
  facet normal -1 -0 0
    outer loop
      vertex 64.5 64.5 15
      vertex 64.5 50.5 13
      vertex 64.5 50.5 15
    endloop
  endfacet
  facet normal 0 -1 0
    outer loop
      vertex 50.5 64.5 13
      vertex 64.5 64.5 15
      vertex 50.5 64.5 15
    endloop
  endfacet
  facet normal 0 -1 -0
    outer loop
      vertex 64.5 64.5 15
      vertex 50.5 64.5 13
      vertex 64.5 64.5 13
    endloop
  endfacet
  facet normal 0 1 -0
    outer loop
      vertex 64.5 50.5 13
      vertex 50.5 50.5 15
      vertex 64.5 50.5 15
    endloop
  endfacet
  facet normal 0 1 0
    outer loop
      vertex 50.5 50.5 15
      vertex 64.5 50.5 13
      vertex 50.5 50.5 13
    endloop
  endfacet
endsolid OpenSCAD_Model
